<svg xmlns="http://www.w3.org/2000/svg" viewBox="0 0 858.65 346.41"><defs><style>.\31 102a9fd-3683-413e-a187-0dec3e0095bd{fill:#fff;}</style></defs><title>em_logo</title><g id="5e76eaa5-0d7b-4bb7-af8a-f9aaeba0ebb1" data-name="Layer 2"><g id="b6b66faf-c93f-4cd4-80ea-c7e46ad518a3" data-name="Layer 1"><path class="1102a9fd-3683-413e-a187-0dec3e0095bd" d="M340.19,226.19l-27.53-38.33v61.33H285.31v-107h26l29.27,43.56L370,142.21h25.79v107H368.24V187.86l-27.35,38.33Z"/><path class="1102a9fd-3683-413e-a187-0dec3e0095bd" d="M451.29,202c0-6.1-5.58-10.45-16.73-10.45a43.19,43.19,0,0,0-21.43,5.58v-22c6.45-3.49,16.9-6.1,28.05-6.1,23.17,0,36.41,11,36.41,31.71v48.44H451.29v-4c-2.61,2.61-10.11,5.4-18.47,5.4-15.51,0-28.75-8.71-28.75-25.26,0-15.16,13.24-24.92,30.14-24.92,6.62,0,13.94,2.09,17.07,4.36Zm0,20.73c-1.74-3.31-6.1-5.4-11-5.4-5.4,0-10.8,2.27-10.8,7.49,0,5.4,5.4,7.67,10.8,7.67,4.88,0,9.23-2.09,11-5.23Z"/><path class="1102a9fd-3683-413e-a187-0dec3e0095bd" d="M523.9,249.19H496.72V192H483.13V170.79h13.59v-21.6H523.9v21.6h15.33V192H523.9Z"/><path class="1102a9fd-3683-413e-a187-0dec3e0095bd" d="M600.35,196.75A23.57,23.57,0,0,0,589,194.31c-7.49,0-12.55,3.31-13.94,8.89v46H547.73v-78.4h27.35v7A21.39,21.39,0,0,1,592.86,169a17.08,17.08,0,0,1,7.49,1.39Z"/><path class="1102a9fd-3683-413e-a187-0dec3e0095bd" d="M636.43,249.19H609.07v-78.4h27.35Z"/><path class="1102a9fd-3683-413e-a187-0dec3e0095bd" d="M700.82,209.12l27.53,40.07H698.73l-13.42-20.39L671.9,249.19H643.67L671,209.29l-26.14-38.51h29.45l12.2,18.82,12.37-18.82h28.23Z"/><path class="1102a9fd-3683-413e-a187-0dec3e0095bd" d="M361.8,8.73v24h-49V49.5h44.78V73H312.84V91.49h49v24.22H285.31V8.73Z"/><path class="1102a9fd-3683-413e-a187-0dec3e0095bd" d="M397.6,115.71,367.8,37.31h27.88l15,45,14.64-45h26.83l-30,78.4Z"/><path class="1102a9fd-3683-413e-a187-0dec3e0095bd" d="M477.41,82.78c2.27,9.41,9.93,13.24,20,13.24a40.25,40.25,0,0,0,22.65-6.27v20.73c-6.1,4.53-15.68,7-27,7-25.09,0-42.16-15.16-42.16-40.42,0-24.57,16.38-41.47,38-41.47,24.39,0,36.76,15.85,36.76,39.2v8Zm.35-15.33h23.52c-.7-6.62-4.7-11.15-11.32-11.15C484,56.3,479.67,60.3,477.75,67.45Z"/><path class="1102a9fd-3683-413e-a187-0dec3e0095bd" d="M603.32,143.41l11.5-29.62L585.55,37.31H614l15,44.6,14.64-44.6h27.18L630.33,143.41Z"/><path class="1102a9fd-3683-413e-a187-0dec3e0095bd" d="M576.09,35.76a21.07,21.07,0,0,0-14.62,8.51v-7H534.11v78.4h27.35v-46c1.39-5.58,6.45-8.89,13.94-8.89a23.62,23.62,0,0,1,11.26,2.41Z"/><path class="1102a9fd-3683-413e-a187-0dec3e0095bd" d="M129,0a129,129,0,1,0,129,129A129,129,0,0,0,129,0ZM89,233.5c-19.82,9.78-51-12.83-69.52-50.49S1.94,106.9,21.76,97.12s51,12.83,69.52,50.49S108.84,223.73,89,233.5ZM51.89,50.07C51.89,25.84,86.4,6.2,129,6.2S206,25.84,206,50.07,171.54,94,129,94,51.89,74.31,51.89,50.07Zm95.92,184.18c-21.15-14.85-18.76-54.69,5.32-89S213.89,95.17,235,110s18.76,54.69-5.32,89S169,249.1,147.81,234.25Z"/><polygon class="1102a9fd-3683-413e-a187-0dec3e0095bd" points="142.8 57.53 116.02 56.85 140.6 71.04 122.97 81.22 73.65 52.74 90.35 43.1 121.05 44.76 118.27 26.98 134.97 17.34 184.29 45.81 166.67 55.99 142.09 41.8 143.17 57.31 142.8 57.53"/><path class="1102a9fd-3683-413e-a187-0dec3e0095bd" d="M312.27,289.09v2.17H287.55v18.21H310v2.17H287.55V331.3h24.72v2.17h-27V289.09Z"/><path class="1102a9fd-3683-413e-a187-0dec3e0095bd" d="M330.56,333.47l-13-32.09h2.31l11.42,28.48,11.42-28.48H345l-13,32.09Z"/><path class="1102a9fd-3683-413e-a187-0dec3e0095bd" d="M363.59,332a12.73,12.73,0,0,0,9-3.18v2.39c-2.31,2-5.42,2.82-9,2.82-8.82,0-14.6-6.29-14.6-16.34,0-9.83,5.06-16.91,13.52-16.91,8.24,0,12.5,6.29,12.5,15.61v.79H351.23v.51C351.23,326.89,356.51,332,363.59,332ZM351.3,315.25h21.47c-.22-6.29-3-12.43-10.26-12.43C356.36,302.82,352.1,307.59,351.3,315.25Z"/><path class="1102a9fd-3683-413e-a187-0dec3e0095bd" d="M397.13,303.18a8,8,0,0,0-2.46-.36c-4.26,0-7.52,3.25-9.32,7.59v23.06h-2.17V301.38h2.17v5.85a10.4,10.4,0,0,1,9.32-6.43,7.67,7.67,0,0,1,2.46.36Z"/><path class="1102a9fd-3683-413e-a187-0dec3e0095bd" d="M407,345.76l5.42-13.23-12.65-31.15h2.39l11.35,28.48,11.42-28.48h2.31l-18,44.38Z"/><path class="1102a9fd-3683-413e-a187-0dec3e0095bd" d="M439.12,333.47H437V303.4h-7v-2h7v-8.1h2.17v8.1h7.73v2h-7.73Z"/><path class="1102a9fd-3683-413e-a187-0dec3e0095bd" d="M453.72,286.49h2.17V307.3a13,13,0,0,1,10.91-6.51c7.3,0,11.06,4.55,11.06,11.28v21.4H475.7V312.36c0-5.42-2.75-9.47-9-9.47-4.91,0-8.89,3.54-10.77,7.59v23h-2.17Z"/><path class="1102a9fd-3683-413e-a187-0dec3e0095bd" d="M489.43,293.35a1.74,1.74,0,1,1,1.66-1.73A1.65,1.65,0,0,1,489.43,293.35Zm1.08,40.12h-2.17V301.38h2.17Z"/><path class="1102a9fd-3683-413e-a187-0dec3e0095bd" d="M501.36,301.38h2.17v5.93a13,13,0,0,1,10.91-6.51c7.3,0,11.06,4.55,11.06,11.28v21.4h-2.17V312.36c0-5.42-2.75-9.47-9-9.47-4.91,0-8.89,3.54-10.77,7.59v23h-2.17Z"/><path class="1102a9fd-3683-413e-a187-0dec3e0095bd" d="M557.59,327.25A12.89,12.89,0,0,1,547,333.32c-9.32,0-13.44-7.66-13.44-16.26S537.72,300.8,547,300.8a12.89,12.89,0,0,1,10.55,6.07v-5.49h2.17V331.3c0,10.19-6.36,15.11-14.09,15.11a15.46,15.46,0,0,1-9.76-3.18v-2.75a14,14,0,0,0,9.76,3.83c6.72,0,11.93-4,11.93-12.94Zm0-17.2c-2.46-4.63-6.36-7.16-10.55-7.16-7.08,0-11.2,5.85-11.2,14.17S540,331.23,547,331.23c4.19,0,8.1-2.53,10.55-7.16Z"/><path class="1102a9fd-3683-413e-a187-0dec3e0095bd" d="M587.66,293.35a1.74,1.74,0,1,1,1.66-1.73A1.65,1.65,0,0,1,587.66,293.35Zm1.08,40.12h-2.17V301.38h2.17Z"/><path class="1102a9fd-3683-413e-a187-0dec3e0095bd" d="M597.06,328.34a14.65,14.65,0,0,0,10,3.69c4.34,0,8.53-1.88,8.53-6.65,0-3-1.88-4.92-5.35-6.22l-6.07-2.31c-4-1.52-7-3.4-7-8,0-5.28,4.63-8,10-8a16,16,0,0,1,9.32,2.89v2.6a14.16,14.16,0,0,0-9.32-3.47c-4.12,0-7.81,2.1-7.81,6,0,3.4,2.24,4.7,6,6.14l6.14,2.39c4,1.52,6.29,4.19,6.29,8,0,5.57-4.92,8.67-10.77,8.67a17.25,17.25,0,0,1-10-3Z"/><path class="1102a9fd-3683-413e-a187-0dec3e0095bd" d="M644.69,345.76h-2.17V301.38h2.17v5.57a12.94,12.94,0,0,1,10.7-6.14c9.47,0,13.66,7.88,13.66,16.62S664.86,334,655.39,334a12.94,12.94,0,0,1-10.7-6.14Zm0-21c2.53,4.7,6.43,7.16,10.7,7.16,7.23,0,11.42-6.07,11.42-14.53s-4.19-14.53-11.42-14.53c-4.26,0-8.17,2.46-10.7,7.16Z"/><path class="1102a9fd-3683-413e-a187-0dec3e0095bd" d="M688.93,334c-8.31,0-13.81-6.72-13.81-16.62s5.49-16.62,13.81-16.62,13.81,6.72,13.81,16.62S697.24,334,688.93,334Zm0-31.23c-6.87,0-11.56,5.78-11.56,14.6s4.7,14.6,11.56,14.6,11.56-5.78,11.56-14.6S695.8,302.82,688.93,302.82Z"/><path class="1102a9fd-3683-413e-a187-0dec3e0095bd" d="M708.66,328.34a14.65,14.65,0,0,0,10,3.69c4.34,0,8.53-1.88,8.53-6.65,0-3-1.88-4.92-5.35-6.22l-6.07-2.31c-4-1.52-7-3.4-7-8,0-5.28,4.63-8,10-8a16,16,0,0,1,9.32,2.89v2.6a14.16,14.16,0,0,0-9.32-3.47c-4.12,0-7.81,2.1-7.81,6,0,3.4,2.24,4.7,6,6.14l6.14,2.39c4,1.52,6.29,4.19,6.29,8,0,5.57-4.92,8.67-10.77,8.67a17.25,17.25,0,0,1-10-3Z"/><path class="1102a9fd-3683-413e-a187-0dec3e0095bd" d="M735.62,328.34a14.65,14.65,0,0,0,10,3.69c4.34,0,8.53-1.88,8.53-6.65,0-3-1.88-4.92-5.35-6.22l-6.07-2.31c-4-1.52-7-3.4-7-8,0-5.28,4.63-8,10-8a16,16,0,0,1,9.32,2.89v2.6a14.16,14.16,0,0,0-9.32-3.47c-4.12,0-7.81,2.1-7.81,6,0,3.4,2.24,4.7,6,6.14l6.14,2.39c4,1.52,6.29,4.19,6.29,8,0,5.57-4.92,8.67-10.77,8.67a17.25,17.25,0,0,1-10-3Z"/><path class="1102a9fd-3683-413e-a187-0dec3e0095bd" d="M766.2,293.35a1.74,1.74,0,1,1,1.66-1.73A1.65,1.65,0,0,1,766.2,293.35Zm1.08,40.12h-2.17V301.38h2.17Z"/><path class="1102a9fd-3683-413e-a187-0dec3e0095bd" d="M780.29,333.47h-2.17v-47h2.17v20.46A12.94,12.94,0,0,1,791,300.8c9.47,0,13.66,7.88,13.66,16.62S800.46,334,791,334a12.94,12.94,0,0,1-10.7-6.14Zm0-8.67c2.53,4.7,6.43,7.16,10.7,7.16,7.23,0,11.42-6.07,11.42-14.53s-4.19-14.53-11.42-14.53c-4.26,0-8.17,2.46-10.7,7.16Z"/><path class="1102a9fd-3683-413e-a187-0dec3e0095bd" d="M815.28,333.47h-2.17v-47h2.17Z"/><path class="1102a9fd-3683-413e-a187-0dec3e0095bd" d="M838.33,332a12.73,12.73,0,0,0,9-3.18v2.39c-2.31,2-5.42,2.82-9,2.82-8.82,0-14.6-6.29-14.6-16.34,0-9.83,5.06-16.91,13.52-16.91,8.24,0,12.5,6.29,12.5,15.61v.79H826v.51C826,326.89,831.25,332,838.33,332ZM826,315.25h21.47c-.22-6.29-3-12.43-10.26-12.43C831.11,302.82,826.84,307.59,826,315.25Z"/><path class="1102a9fd-3683-413e-a187-0dec3e0095bd" d="M856.77,329.71a2,2,0,1,1-1.88,2A1.93,1.93,0,0,1,856.77,329.71Z"/></g></g></svg>